<?xml version="1.0" encoding="utf-8"?>
<!-- Generator: Adobe Illustrator 23.1.1, SVG Export Plug-In . SVG Version: 6.00 Build 0)  -->
<svg version="1.1" id="Layer_1" xmlns="http://www.w3.org/2000/svg" xmlns:xlink="http://www.w3.org/1999/xlink" x="0px" y="0px"
	 viewBox="0 0 700 630" style="enable-background:new 0 0 700 630;" xml:space="preserve">
<style type="text/css">
	.st0{fill:#FFFFFF;}
	.st1{fill:#B2B2B2;}
</style>
<g>
	<g>
		<g>
			<path class="st0" d="M195.9,144.9v118.6l38.3,33l58-32.2v-16l-30.7-25.9c-2.3-22.8-7.8-45-16.2-66.1L195.9,144.9z"/>
			<polygon class="st0" points="119.6,197.8 174.3,244.8 174.3,190.9 119.6,144 			"/>
			<polygon class="st0" points="309.8,280.7 309.8,361.5 309.7,361.4 252.8,312.4 			"/>
			<polygon class="st0" points="119.6,85.3 119.6,108.4 174.3,155.4 174.3,85.3 			"/>
			<path class="st0" d="M195.9,85.3v25.4c44.5,1.9,82,37.3,88.8,85.2h25V85.3H195.9z"/>
			<polygon class="st0" points="309.8,61.7 309.8,6 272.5,6 276.1,37.3 250.5,37.3 238.3,6 195.9,6 195.9,61.7 			"/>
		</g>
		<g>
			<path class="st1" d="M446.8,144.9v118.6l-38.3,33l-58-32.2v-16l30.7-25.9c2.3-22.8,7.8-45,16.2-66.1L446.8,144.9z"/>
			<polygon class="st1" points="333,280.7 333,361.5 333,361.4 390,312.4 			"/>
			<polygon class="st1" points="523.2,197.8 468.5,244.8 468.5,190.9 523.2,144 			"/>
			<g>
				<g>
					<path class="st1" d="M333,85.3v110.6h25c6.8-47.8,44.4-83.3,88.8-85.2V85.3H333z"/>
				</g>
			</g>
			<polygon class="st1" points="468.5,85.3 468.5,155.4 523.2,108.4 523.2,85.3 			"/>
			<polygon class="st1" points="446.8,61.7 446.8,6 404.5,6 392.3,37.3 366.6,37.3 370.2,6 333,6 333,61.7 			"/>
		</g>
	</g>
	<path class="st0" d="M174.9,543.8h-42.2l-60.2-80.8H45.2v80.8H7.8V305.1h31.5h39.3c31.5,0,49.9,12.9,59.5,23.8
		c12.6,13.8,19.3,33.1,19.3,55.3c0,21.9-6.8,41.2-19.3,55c-5.8,6.4-14.8,13.8-27.7,18.3L174.9,543.8z M78.6,429.6
		c15.4,0,27-4.5,34.4-12.9c9-9.7,10.6-23.2,10.6-32.5c0-9.7-1.6-23.2-10.6-32.8c-7.4-8.4-19-12.6-34.4-12.6H45.2v90.7H78.6z"/>
	<path class="st0" d="M404.8,543.8V385.6l-83.4,72.9l-83.7-72.9v158.2h-41.7V305.1l125.4,109.6l125.4-109.6v238.8H404.8z"/>
	<path class="st0" d="M659.6,495.9c-0.9,0.9-1.5,1.5-2.4,2.4l20.2,26.5l-25.3,19l-20.5-27.4c-2.4,1.2-5.1,2.4-7.5,3.6
		c-13.9,5.7-28.6,8.7-43.7,8.7s-29.8-3-43.4-8.7c-13.6-5.7-25.3-13.9-35.6-24.1c-10.2-10.2-18.4-22-24.1-35.6
		c-5.7-13.6-8.7-28.3-8.7-43.4c0-15.1,3-29.8,8.7-43.7c5.7-13.3,13.9-25.3,24.1-35.6c10.3-10.2,22-18.1,35.6-23.8
		c13.6-6,28.3-8.7,43.4-8.7s29.8,2.7,43.7,8.7c13.3,5.7,25.3,13.6,35.6,23.8c10.3,10.3,18.1,22.3,23.8,35.6
		c6,13.9,8.7,28.6,8.7,43.7c0,15.1-2.7,29.8-8.7,43.4C677.7,473.9,669.8,485.6,659.6,495.9z M610.2,487.8L594.5,467l25.3-19l16.3,22
		c13.6-14.5,21.1-33.2,21.1-53.1c0-20.5-8.1-39.8-22.6-54.3c-14.5-14.5-33.8-22.6-54.3-22.6c-20.5,0-39.8,8.1-54.3,22.6
		c-14.5,14.5-22.6,33.8-22.6,54.3c0,20.5,8.1,39.8,22.6,54.3c14.5,14.5,33.8,22.6,54.3,22.6C590.9,493.8,600.8,491.7,610.2,487.8z"
		/>
	<g>
		<path class="st0" d="M157.5,570.4v9.4c-4.6-3.8-9.3-5.7-14.2-5.7c-5.4,0-9.9,1.9-13.6,5.8c-3.7,3.9-5.6,8.6-5.6,14.2
			c0,5.5,1.9,10.2,5.6,13.9c3.7,3.8,8.3,5.7,13.7,5.7c2.8,0,5.2-0.5,7.1-1.4c1.1-0.5,2.2-1.1,3.4-1.8c1.2-0.8,2.4-1.7,3.7-2.8v9.6
			c-4.5,2.6-9.3,3.8-14.3,3.8c-7.5,0-13.9-2.6-19.2-7.9c-5.3-5.3-7.9-11.7-7.9-19.1c0-6.7,2.2-12.7,6.6-17.9
			c5.4-6.4,12.5-9.6,21.1-9.6C148.6,566.5,153.1,567.8,157.5,570.4z"/>
		<path class="st0" d="M199.2,597.7l16.3,22.4h-9.7l-15-21.5h-1.4v21.5h-7.9v-52.5h9.3c6.9,0,12,1.3,15,3.9
			c3.4,2.9,5.1,6.7,5.1,11.5c0,3.7-1.1,6.9-3.2,9.6C205.6,595.2,202.7,596.9,199.2,597.7z M189.4,591.7h2.5c7.5,0,11.3-2.9,11.3-8.6
			c0-5.4-3.7-8.1-11-8.1h-2.8V591.7z"/>
		<path class="st0" d="M266.3,575h-21.1v12.6h20.4v7.5h-20.4v17.6h21.1v7.5h-29v-52.5h29V575z"/>
		<path class="st0" d="M321.5,607.3H299l-5.9,12.8h-8.5l26-55.8l25.1,55.8H327L321.5,607.3z M318.3,599.9l-7.8-17.9l-8.2,17.9H318.3
			z"/>
		<path class="st0" d="M367.8,575v45.1h-7.9V575h-12.1v-7.5h32v7.5H367.8z"/>
		<path class="st0" d="M408.8,567.5v52.5h-7.9v-52.5H408.8z"/>
		<path class="st0" d="M438,567.5l14.5,36.4l14.7-36.4h8.7L452.3,624l-23-56.5H438z"/>
		<path class="st0" d="M525.3,575h-21.1v12.6h20.4v7.5h-20.4v17.6h21.1v7.5h-29v-52.5h29V575z"/>
	</g>
</g>
</svg>
